HIERARCHY
ROOT root     
{
	OFFSET 0.0000 0.0000 0.0000
	CHANNELS 6 Xposition Yposition Zposition Zrotation Yrotation Xrotation
	JOINT pelvis   
	{
		OFFSET 0.0000 0.0000 0.0000
		CHANNELS 3 Zrotation Yrotation Xrotation
		JOINT thorax   
		{
			OFFSET 0.0000 23.0750 -5.0000
			CHANNELS 3 Zrotation Yrotation Xrotation
			JOINT rclavicle
			{
				OFFSET 0.0000 28.0009 0.0000
				CHANNELS 3 Zrotation Yrotation Xrotation
				JOINT rhumerus 
				{
					OFFSET -18.5725 5.5939 0.0000
					CHANNELS 3 Zrotation Yrotation Xrotation
					JOINT rradius  
					{
						OFFSET -24.8459 0.0000 0.0000
						CHANNELS 3 Zrotation Yrotation Xrotation
						JOINT rhand    
						{
							OFFSET -24.5477 0.0000 0.0000
							CHANNELS 3 Zrotation Yrotation Xrotation
							End Site
							{
								OFFSET -8.1826 0.0000 0.0000
							}
						}
					}
				}
			}
			JOINT lclavicle
			{
				OFFSET 0.0000 28.0009 0.0000
				CHANNELS 3 Zrotation Yrotation Xrotation
				JOINT lhumerus 
				{
					OFFSET 18.5725 5.5939 0.0000
					CHANNELS 3 Zrotation Yrotation Xrotation
					JOINT lradius  
					{
						OFFSET 24.8459 0.0000 0.0000
						CHANNELS 3 Zrotation Yrotation Xrotation
						JOINT lhand    
						{
							OFFSET 24.5477 0.0000 0.0000
							CHANNELS 3 Zrotation Yrotation Xrotation
							End Site
							{
								OFFSET 8.1826 0.0000 0.0000
							}
						}
					}
				}
			}
			JOINT head     
			{
				OFFSET 0.0000 35.2030 0.0000
				CHANNELS 3 Zrotation Yrotation Xrotation
				End Site
				{
					OFFSET 0.0000 11.7343 0.0000
				}
			}
		}
		JOINT rfemur   
		{
			OFFSET -8.2817 0.0000 0.0000
			CHANNELS 3 Zrotation Yrotation Xrotation
			JOINT rtibia   
			{
				OFFSET 0.0000 -43.3627 0.0000
				CHANNELS 3 Zrotation Yrotation Xrotation
				JOINT rfoot    
				{
					OFFSET 0.0000 -38.2947 0.0000
					CHANNELS 3 Zrotation Yrotation Xrotation
					JOINT rtoes    
					{
						OFFSET 0.0000 0.0000 16.6054
						CHANNELS 3 Zrotation Yrotation Xrotation
						End Site
						{
							OFFSET 0.0000 0.0000 5.5351
						}
					}
				}
			}
		}
		JOINT lfemur   
		{
			OFFSET 8.2817 0.0000 0.0000
			CHANNELS 3 Zrotation Yrotation Xrotation
			JOINT ltibia   
			{
				OFFSET 0.0000 -43.3627 0.0000
				CHANNELS 3 Zrotation Yrotation Xrotation
				JOINT lfoot    
				{
					OFFSET 0.0000 -38.2947 0.0000
					CHANNELS 3 Zrotation Yrotation Xrotation
					JOINT ltoes    
					{
						OFFSET 0.0000 0.0000 16.6054
						CHANNELS 3 Zrotation Yrotation Xrotation
						End Site
						{
							OFFSET 0.0000 0.0000 5.5351
						}
					}
				}
			}
		}
	}
}
MOTION
Frames: 23
Frame Time: .0333333
-78.968 77.473 -0.6031 -138.848 88.6843 -119.142 0 -0 0 3.40303 -11.0104 17.9767 23.5304 -13.5344 2.77914e-05 53.4105 -16.9137 1.40429 -0 49.2779 -0 2.75548 0.595502 0.0142999 -15.4349 14.786 -5.13659e-05 -43.393 8.00539 -1.01213 180 -87.7873 180 -0.293004 5.85241 -0.0150003 0.277205 1.87328 -23.0878 10.6109 -7.20078 -58.4093 -0 -0 47.4744 6.37615e-07 -6.35685 0.525997 -0.0585996 3.8874e-09 -1.28447 0.841219 14.4089 -18.3947 -0 -0 61.0446 9.28319e-07 -1.97911 -1.78693 0.061701 1.16918e-07 -77.6049 
-78.033 77.455 -0.5126 -136.365 88.742 -116.725 0 -0 0 3.71397 -10.9382 17.8867 23.5346 -13.4297 0.000114147 53.1545 -16.6293 1.50066 -3.87178e-07 49.3687 -8.42388e-07 2.74976 0.574605 0.0137999 -15.4794 14.7321 1.00241e-06 -43.7587 8.37857 -0.696039 180 -88.3202 -180 -0.344397 5.77626 -0.0173999 0.217994 1.78922 -22.8276 10.5924 -7.14477 -58.0704 -0 -0 48.2906 7.73433e-07 -6.51187 -0.697497 -179.92 5.98535e-09 -0.362803 1.12237 14.2363 -17.8548 -0 -0 61.11 -6.06104e-07 -2.14397 -0.845297 0.0315995 4.06261e-07 -77.9848 
-77.109 77.444 -0.4218 -134.595 88.8157 -115.004 0 -0 0 3.98151 -10.8593 17.7824 23.5646 -13.3431 -8.01671e-05 52.9106 -16.3138 1.57842 -0 49.4965 -0 2.71638 0.555306 0.0132 -15.4875 14.6728 0.000124873 -44.1505 8.73809 -0.33241 180 -88.9734 -180 -0.413201 5.71265 -0.0206003 0.204412 1.68778 -22.5289 10.5487 -7.09125 -57.7004 -0 -0 49.0145 1.87036e-06 -6.66083 -1.88071 -179.78 -5.53271e-08 -1.51896 1.36601 14.0294 -17.3643 -0 -0 61.1844 -2.39458e-08 -2.28419 0.135704 -0.00539997 2.90215e-08 -78.2847 
-76.2 77.442 -0.3312 -133.952 88.9081 -114.379 0 -0 0 4.21175 -10.7817 17.654 23.607 -13.2629 -8.13252e-05 52.6881 -15.9789 1.62584 -0 49.6639 -0 2.65656 0.541005 0.0124999 -15.4702 14.606 1.08638e-05 -44.5593 9.09728 0.0646341 180 -89.6755 -180 -0.503 5.6625 -0.0249 0.228599 1.57455 -22.2012 10.4682 -7.02635 -57.3158 -0 -0 49.6645 -9.67102e-08 -6.8097 -2.9657 -179.646 -1.66135e-07 -2.04097 1.57015 13.78 -16.9436 -0 -0 61.2818 4.03427e-07 -2.4049 1.17048 -0.0491996 1.55249e-07 -78.4679 
-75.306 77.446 -0.2426 -134.708 88.947 -115.149 0 -0 0 4.40412 -10.7062 17.516 23.6601 -13.1898 -0.000110187 52.4933 -15.6261 1.64074 -0 49.8761 -0 2.56828 0.532606 0.0119 -15.4324 14.5332 0.000126375 -44.9761 9.44824 0.492174 0 -89.568 0 -0.610499 5.62472 -0.0300001 0.282313 1.44995 -21.8655 10.3492 -6.95493 -56.9273 -0 -0 50.2678 -4.26685e-06 -6.95117 -3.95203 -179.519 9.2331e-08 -2.15908 1.73359 13.4911 -16.5918 -0 -0 61.4146 -2.39618e-06 -2.51805 2.28486 -0.100501 6.13844e-07 -78.4804 
-74.426 77.457 -0.1568 -136.902 89.0834 -117.322 0 -0 0 4.56462 -10.6349 17.377 23.7132 -13.1205 0.000134875 52.3304 -15.2554 1.62304 -0 50.1317 -0 2.45264 0.531596 0.0114001 -15.3836 14.4623 -4.19592e-05 -45.3981 9.78726 0.943893 -2.85557e-05 -88.8546 2.87792e-05 -0.732293 5.59764 -0.0358002 0.356795 1.31704 -21.5369 10.1948 -6.87869 -56.5396 -0 -0 50.8439 -3.03972e-06 -7.08444 -4.83773 -179.4 2.11951e-07 -2.00836 1.8597 13.166 -16.3159 -0 -0 61.5955 -3.26582e-06 -2.62995 3.49297 -0.160302 -1.80901e-06 -78.2409 
-73.561 77.474 -0.0738 -140.879 89.1219 -121.283 0 -0 0 4.70056 -10.5684 17.2434 23.7629 -13.0532 -0.000110842 52.2047 -14.8655 1.57525 -0 50.4293 -0 2.31174 0.539105 0.0108997 -15.331 14.3927 -8.51379e-05 -45.8191 10.1141 1.41265 -8.52781e-06 -88.0631 8.24537e-06 -0.863895 5.57958 -0.0420994 0.445003 1.1788 -21.2341 10.0151 -6.80118 -56.1608 -0 -0 51.399 4.93775e-06 -7.21053 -5.63256 -179.289 -2.61753e-07 -1.73305 1.95399 12.8156 -16.1189 -0 -0 61.8369 -4.60265e-07 -2.74129 4.79634 -0.229402 4.01059e-06 -77.6577 
-72.714 77.498 0.0076 -146.352 89.1938 -126.716 0 -0 0 4.82284 -10.5078 17.117 23.8006 -12.98 1.59835e-05 52.1173 -14.46 1.50146 -4.09174e-07 50.7663 -8.6237e-07 2.14801 0.557802 0.0105001 -15.2836 14.3253 -8.33575e-05 -46.2345 10.4309 1.88984 -8.64453e-06 -87.2335 9.07158e-06 -1.002 5.56906 -0.0486998 0.540609 1.0381 -20.9701 9.82431 -6.72523 -55.7941 -0 -0 51.9333 -1.59071e-06 -7.33293 -6.35191 -179.184 2.19378e-07 -1.44785 2.02508 12.452 -16.013 -0 -0 62.1508 5.9202e-08 -2.84251 6.17862 -0.306202 3.10669e-06 -76.6413 
-71.883 77.527 0.0871 -153.237 89.2255 -133.56 0 -0 0 4.93133 -10.448 17.0136 23.8249 -12.9016 2.01343e-05 52.0649 -14.037 1.40091 -0 51.1471 -0 1.97069 0.580701 0.00999992 -15.2429 14.2688 1.032e-05 -46.6411 10.7271 2.37807 0 -86.385 0 -1.13561 5.56233 -0.0552014 0.641394 0.895598 -20.7562 9.6344 -6.66045 -55.4356 -0 -0 52.449 3.07934e-06 -7.44694 -7.02113 -179.085 -3.47004e-07 -1.24796 2.07756 12.0969 -15.9909 -0 -0 62.5448 8.16967e-07 -2.92103 7.60545 -0.386906 2.54198e-06 -75.0298 
-71.071 77.563 0.1676 -160.38 89.233 -140.65 0 -0 0 5.03957 -10.3895 16.9247 23.8324 -12.811 0.000147624 52.0482 -13.5986 1.28658 -0 51.5621 -0 1.77893 0.614705 0.00949959 -15.2174 14.2148 3.80094e-05 -47.0366 11.0162 2.86378 -1.85691e-06 -85.5188 2.00796e-06 -1.26559 5.5594 -0.0614997 0.745692 0.753396 -20.598 9.46274 -6.60746 -55.0864 -0 -0 52.9295 -4.24582e-07 -7.55938 -7.65628 -178.987 -3.50196e-07 -1.17096 2.12292 11.7634 -16.0678 -0 -0 63.0266 3.32493e-06 -2.94379 9.02474 -0.462193 4.72782e-06 -72.8304 
-70.278 77.605 0.2502 -166.998 89.2464 -147.193 0 -0 0 5.14888 -10.3277 16.8545 23.8225 -12.7094 -8.25518e-05 52.0609 -13.1462 1.16371 -0 52.0087 -0 1.57862 0.656403 0.00900014 -15.2063 14.1668 3.20572e-05 -47.4215 11.2953 3.34638 -0 -84.6606 0 -1.38622 5.55831 -0.0673011 0.854897 0.610999 -20.4958 9.3201 -6.57062 -54.7422 -0 -0 53.365 2.47856e-06 -7.66895 -8.27574 -178.89 1.26853e-07 -1.22849 2.16718 11.4716 -16.2418 -0 -0 63.5982 -2.38161e-06 -2.87697 10.3708 -0.518303 2.06861e-06 -70.0005 
-69.504 77.653 0.3366 -172.309 89.2104 -152.429 0 -0 0 5.26087 -10.2584 16.8019 23.7966 -12.5933 -5.05224e-05 52.1003 -12.6816 1.03995 -0 52.4864 -0 1.37303 0.704796 0.00840012 -15.2099 14.1215 2.40245e-05 -47.7951 11.5657 3.82377 -2.63754e-06 -83.7945 2.93984e-06 -1.49454 5.5578 -0.072502 0.971403 0.467199 -20.4478 9.21583 -6.55243 -54.4 -0 -0 53.7439 8.54912e-07 -7.77483 -8.89077 -178.791 5.65624e-08 -1.40145 2.21515 11.237 -16.5142 -0 -0 64.2585 -9.73748e-06 -2.6809 11.5737 -0.538201 2.7502e-07 -66.5953 
-68.749 77.705 0.428 -176.002 89.1893 -156.028 0 -0 0 5.37474 -10.1774 16.7659 23.7554 -12.464 -2.65775e-05 52.1619 -12.2073 0.923126 -0 52.9915 -0 1.16376 0.758898 0.00769968 -15.2232 14.0798 -5.94475e-06 -48.1579 11.8287 4.29463 -2.29842e-06 -82.9375 2.60084e-06 -1.58919 5.5574 -0.0770992 1.0983 0.320498 -20.4463 9.15376 -6.55373 -54.0526 -0 -0 54.0594 6.31969e-06 -7.87523 -9.50666 -178.691 5.04157e-07 -1.65052 2.26997 11.07 -16.8834 -0 -0 65.0021 7.31956e-06 -2.31795 12.5663 -0.504603 3.03599e-06 -62.7432 
-68.014 77.761 0.5253 -178.257 89.0877 -158.201 0 -0 0 5.48767 -10.0806 16.7426 23.7031 -12.3214 -5.80018e-05 52.2407 -11.7278 0.818668 -0 53.5244 -0 0.9536 0.816398 0.0067999 -15.245 14.0392 -5.92027e-05 -48.508 12.0846 4.75841 -1.43911e-06 -82.0835 1.65306e-06 -1.67005 5.55665 -0.0811027 1.23818 0.169593 -20.4825 9.13436 -6.57381 -53.7018 -0 -0 54.3037 -1.89736e-06 -7.96709 -10.1201 -178.591 -7.24264e-07 -1.91738 2.33157 10.9755 -17.3473 -0 -0 65.8192 -2.38075e-06 -1.7593 13.2931 -0.404598 5.0567e-06 -58.6172 
-67.298 77.821 0.6286 -179.431 89.0608 -159.255 0 -0 0 5.59632 -9.96455 16.7289 23.6397 -12.1692 -0.000107605 52.3319 -11.2441 0.73491 -0 54.0831 -0 0.741397 0.877303 0.00569998 -15.2709 13.9978 -2.77647e-05 -48.8485 12.3345 5.21511 0 -81.2433 0 -1.73813 5.55545 -0.0843024 1.39225 0.0129936 -20.5461 9.15433 -6.61136 -53.345 -0 -0 54.4797 2.98344e-06 -8.04669 -10.7233 -178.493 -1.31276e-07 -2.14774 2.39838 10.9521 -17.9009 -0 -0 66.6996 -9.84011e-07 -0.989608 13.7187 -0.234694 1.37131e-06 -54.4865 
-66.6 77.884 0.7368 -179.846 88.9985 -159.552 0 -0 0 5.69133 -9.82685 16.7239 23.568 -12.0087 -5.44665e-05 52.4303 -10.7576 0.680444 -0 54.6673 -0 0.525496 0.942509 0.00429999 -15.296 13.9574 -0.000125938 -49.1799 12.5768 5.66394 -3.40767e-06 -80.4002 3.56448e-06 -1.79738 5.55424 -0.0871985 1.56128 -0.149403 -20.6256 9.20443 -6.66595 -52.9826 -0 -0 54.594 2.71778e-07 -8.10857 -11.3018 -178.401 -1.03128e-06 -2.27567 2.463 10.9908 -18.5386 -0 -0 67.6237 3.01814e-08 -0.0091 13.8317 -0.00219996 4.23645e-09 -50.6415 
-65.92 77.95 0.8501 -179.691 88.9965 -159.247 0 -0 0 5.77701 -9.66619 16.7234 23.489 -11.8399 4.52133e-05 52.5335 -10.2739 0.652076 -0 55.2783 -0 0.309798 1.0067 0.00269998 -15.3196 13.9148 0.00015113 -49.4982 12.8129 6.10684 -3.13163e-06 -79.5784 3.28852e-06 -1.84633 5.5524 -0.0894962 1.73975 -0.317585 -20.7109 9.28235 -6.73317 -52.6204 -0 -0 54.6517 -1.73873e-05 -8.15102 -11.8413 -178.316 5.92438e-08 -2.2671 2.52749 11.0834 -19.2584 -0 -0 68.5854 3.52332e-06 1.15441 13.6108 0.271694 -2.94638e-07 -47.1148 
-65.257 78.018 0.9664 -179.346 88.8872 -158.779 0 -0 0 5.84656 -9.48265 16.7248 23.4014 -11.6683 5.99669e-05 52.6369 -9.79173 0.65698 -0 55.9161 -0 0.0920994 1.0714 0.00089999 -15.3433 13.8721 -1.81534e-05 -49.8071 13.0422 6.54267 -0 -78.7631 0 -1.88926 5.55004 -0.0916022 1.92334 -0.489618 -20.7917 9.37673 -6.81224 -52.2601 -0 -0 54.6663 -4.2501e-05 -8.17037 -12.3268 -178.244 -7.35128e-07 -2.08694 2.58438 11.214 -20.0525 -0 -0 69.5658 7.1424e-06 2.4626 13.0708 0.557215 -2.30214e-07 -43.9844 
-64.611 78.089 1.0846 -178.766 88.873 -158.034 0 -0 0 5.90389 -9.27742 16.7243 23.3049 -11.4931 8.65137e-05 52.7382 -9.31203 0.695298 -0 56.5801 -0 -0.126298 1.1342 -0.00119998 -15.367 13.8271 2.80131e-05 -50.1016 13.2657 6.97155 -2.7018e-06 -77.9585 2.85892e-06 -1.92603 5.54671 -0.0933012 2.10423 -0.662808 -20.8627 9.48264 -6.8998 -51.9083 -0 -0 54.6492 -3.81711e-05 -8.16757 -12.7449 -178.186 5.49398e-07 -1.71264 2.63254 11.3687 -20.9218 -0 -0 70.5536 1.47261e-05 3.85954 12.232 0.818911 -1.03499e-06 -41.2529 
-63.981 78.162 1.2009 -178.569 88.8167 -157.68 0 -0 0 5.9361 -9.05274 16.7274 23.2024 -11.3168 1.68796e-05 52.8312 -8.83052 0.773088 -0 57.2668 -0 -0.345804 1.19715 -0.00359988 -15.3911 13.7842 -0.000123225 -50.3854 13.4813 7.38983 -2.53076e-06 -77.17 2.68799e-06 -1.96274 5.54309 -0.0950027 2.27743 -0.83231 -20.9202 9.58583 -6.99902 -51.5671 -0 -0 54.6168 -2.79321e-05 -8.13878 -13.0941 -178.144 -3.14783e-07 -1.17083 2.65924 11.5292 -21.8553 -0 -0 71.5264 7.71952e-06 5.28844 11.1471 1.0252 -5.00994e-07 -39.0521 
-63.365 78.238 1.3143 -178.544 88.7533 -157.494 0 -0 0 5.95103 -8.81133 16.729 23.0888 -11.1409 -1.6753e-05 52.9126 -8.34578 0.888824 -0 57.9757 -0 -0.563799 1.25731 -0.00620002 -15.4168 13.7428 -9.36949e-05 -50.6564 13.6899 7.79634 0 -76.3914 0 -1.99802 5.53815 -0.0966002 2.43296 -0.994243 -20.9599 9.68545 -7.10728 -51.2423 -0 -0 54.5768 -3.69169e-05 -8.08851 -13.372 -178.117 6.73959e-08 -0.484096 2.66709 11.6828 -22.8545 -0 -0 72.4794 1.91e-06 6.6816 9.86222 1.1495 1.51777e-06 -37.2613 
-62.763 78.317 1.4226 -178.787 88.7086 -157.566 0 -0 0 5.94796 -8.5571 16.7326 22.9626 -10.9651 4.68027e-05 52.9793 -7.85586 1.04042 -5.69716e-07 58.7066 -1.01303e-06 -0.776898 1.31253 -0.00889997 -15.4489 13.7037 -5.00396e-05 -50.916 13.8935 8.19015 -9.61117e-07 -75.6326 7.45977e-07 -2.03158 5.53136 -0.0981997 2.5634 -1.14388 -20.9802 9.77677 -7.22634 -50.9362 -0 -0 54.5388 -4.076e-05 -8.01859 -13.589 1.89578 -9.3415e-08 -0.2841 2.65234 11.8168 -23.9149 -0 -0 73.3974 3.36669e-06 7.97906 8.43677 1.1781 3.87365e-06 -35.8013 
-62.174 78.399 1.5246 -179.258 88.6401 -157.871 0 -0 0 5.93047 -8.2934 16.7374 22.8242 -10.7903 -1.46737e-05 53.0294 -7.35759 1.22687 -0 59.4546 -0 -0.982507 1.36041 -0.0117002 -15.4902 13.6683 -8.00579e-05 -51.1612 14.0927 8.56811 -0 -74.8917 0 -2.06306 5.52159 -0.0994973 2.662 -1.2768 -20.9827 9.85871 -7.35715 -50.6462 -0 -0 54.5039 2.48772e-05 -7.93264 -13.756 1.89768 3.72801e-07 -1.0967 2.61465 11.9216 -25.0334 -0 -0 74.2748 3.00129e-06 9.12935 6.93398 1.1114 -7.36835e-06 -34.5941 
